<svg width="25" height="14" viewBox="0 0 25 14" fill="none" xmlns="http://www.w3.org/2000/svg">
<path fill-rule="evenodd" clip-rule="evenodd" d="M7.46834 0.0416169C8.28785 -0.00354415 9.10641 6.8735e-05 9.92592 6.8735e-05C9.93157 6.8735e-05 14.0786 6.8735e-05 14.0786 6.8735e-05C14.9141 6.8735e-05 15.7326 -0.00354415 16.5517 0.0416169C17.2963 0.0822619 18.0216 0.168971 18.7436 0.362712C20.2635 0.770065 21.5907 1.6209 22.5501 2.82715C23.5038 4.02573 24.02 5.49301 24.02 6.99958C24.02 8.50796 23.5038 9.97434 22.5501 11.1729C21.5907 12.3787 20.2635 13.23 18.7436 13.6374C18.0216 13.8311 17.2963 13.9174 16.5517 13.9585C15.7326 14.0036 14.9141 13.9995 14.0946 13.9995C14.0889 13.9995 9.94099 14 9.94099 14C9.10641 13.9995 8.28785 14.0036 7.46834 13.9585C6.72419 13.9174 5.99888 13.8311 5.27687 13.6374C3.75701 13.23 2.42979 12.3787 1.4704 11.1729C0.516666 9.97434 0 8.50796 0 7.00003C0 5.49301 0.516666 4.02573 1.4704 2.82715C2.42979 1.6209 3.75701 0.770065 5.27687 0.362712C5.99888 0.168971 6.72419 0.0822619 7.46834 0.0416169Z" fill="#F8C400"/>
<path fill-rule="evenodd" clip-rule="evenodd" d="M7.00417 12C9.76789 12 12.0083 9.76142 12.0083 7C12.0083 4.23858 9.76789 2 7.00417 2C4.24044 2 2 4.23858 2 7C2 9.76142 4.24044 12 7.00417 12Z" fill="white"/>
</svg>
